# xmcd
#
# Track frame offsets:
#	150
#	12777
#	24570
#	36904
#	52070
#	64224
#	77980
#	90601
#	103532
#	117040
#	130668
#	143195
#	156282
#
# Disc length: 2289 seconds
#
# Revision: 1
# Processed by: cddbd v1.5.1PL2 Copyright (c) Steve Scherf et al.
# Submitted via: audiograbber 1.83.01
#
DISCID=a908ef0d
DTITLE=Geir Arne Hansen - Veien Har Vært Lang
DYEAR=2005
DGENRE=
TTITLE0=En Time Igjen
TTITLE1=En Vandringsmann
TTITLE2=Saritha Marie
TTITLE3=Under Stjernene På Himmelen
TTITLE4=Tidlig Opp, Sent i Seng
TTITLE5=Julianne
TTITLE6=Svikefulle Marie
TTITLE7=Vil Du Ha Denne Kvinne
TTITLE8=Hjelp Meg Gjennom Denne Natt
TTITLE9=Hjula Ruller Videre
TTITLE10=Bonde I Fra Bygda
TTITLE11=Min Røde Porsche
TTITLE12=Veien Har Vært Lang
EXTD=
EXTT0=
EXTT1=
EXTT2=
EXTT3=
EXTT4=
EXTT5=
EXTT6=
EXTT7=
EXTT8=
EXTT9=
EXTT10=
EXTT11=
EXTT12=
PLAYORDER=
